<?xml version="1.0" encoding="utf-8"?>
<!-- Generator: Adobe Illustrator 27.9.0, SVG Export Plug-In . SVG Version: 6.00 Build 0)  -->
<svg version="1.1" id="Layer_1" xmlns="http://www.w3.org/2000/svg" xmlns:xlink="http://www.w3.org/1999/xlink" x="0px" y="0px"
	 viewBox="0 0 1098.3 373" style="enable-background:new 0 0 1098.3 373;" xml:space="preserve">
<style type="text/css">
	.st0{fill:#FAD02C;}
	.st1{fill:#282828;}
</style>
<path class="st0" d="M235.4,272.1c-14.3,8.2-43.9,22.3-38.3,43.7c1,3.8,2.5,8,4.4,12.5c1.8,4.1,2.4,9.1,0.5,13.3
	c-4.6,9.7-18.1,10.2-23.3,0.8c-3.7-6.7-0.1-14.3,2.7-20.8c3.4-7.9,3.5-15.6-1.6-23c-5.8-8.4-15.7-15.4-24.3-20.4
	c-15.7-9.1-32.2-18.6-49.4-28.4c-6.6-3.7-10-9.8-9.9-17.5c0.1-28.2,0.2-56.7,0-85.2c0-8.8,4.6-13.8,12.4-18.3
	c25.1-14.3,49.1-28.1,72-41.3c4.2-2.4,8.6-3.2,13.3-2.3c2.4,0.5,5.4,1.7,8.8,3.7c23.2,13.5,46.9,27.2,71.4,41
	c6.3,3.6,10.4,9.2,10.4,16.5c0,30.3,0,59.3,0,86.9c0,4.9-1.4,8.9-4.1,11.9c-1.5,1.7-4.5,3.8-8.9,6.3
	C259.5,258.2,247.5,265.1,235.4,272.1z M233.4,160.6c-12.9-7.5-25.9-15.1-38.9-22.3c-2.9-1.6-5.8-1.6-8.6,0
	c-13,7.3-25.6,14.5-37.8,21.6c-3.4,2-5.1,4.7-5.1,8.2c-0.1,9-0.1,23.5,0.1,43.6c0,3.4,1.9,6.3,4.9,8c13,7.5,25.4,14.6,37.4,21.4
	c3.3,1.9,6.5,1.9,9.7,0.2c11.8-6.8,24.4-13.9,37.6-21.5c3.4-1.9,5.1-5,5.1-9.1c0-12.8,0-25.4,0-37.6
	C237.5,168.8,237.8,163.2,233.4,160.6z"/>
<g>
	<g>
		<path class="st1" d="M345.2,211.2c2.3,2.4,4.8,4.3,7.6,5.6c2.7,1.3,5.6,2,8.7,2c3.2,0,5.9-0.8,8-2.4c2.1-1.6,3.1-3.8,3.1-6.6
			c0-2.4-0.6-4.2-1.8-5.7c-1.2-1.4-3.2-2.8-5.9-4.1c-2.7-1.3-6.3-2.8-10.7-4.4c-2.2-0.8-4.7-1.9-7.5-3.3c-2.8-1.4-5.5-3.2-8-5.4
			c-2.5-2.2-4.6-4.9-6.3-8.1c-1.7-3.2-2.5-7-2.5-11.6c0-5.4,1.4-10.1,4.2-14c2.8-3.9,6.7-6.9,11.5-8.9c4.8-2,10.2-3.1,16.1-3.1
			c6.1,0,11.4,1,15.9,3c4.5,2,8.2,4.5,11.2,7.6c3,3,5.2,6.1,6.8,9.3l-16.8,9.4c-1.3-2.2-2.8-4.1-4.5-5.7c-1.7-1.6-3.6-2.9-5.6-3.8
			c-2-0.9-4.2-1.4-6.6-1.4c-3.1,0-5.5,0.7-7.2,2c-1.7,1.4-2.5,3-2.5,5c0,2.1,0.8,3.9,2.4,5.5c1.6,1.6,3.9,3,6.9,4.3
			c3,1.3,6.6,2.7,10.9,4.2c3.2,1.2,6.2,2.6,9,4.2c2.8,1.6,5.2,3.5,7.4,5.8c2.1,2.3,3.8,4.9,5,7.8c1.2,3,1.8,6.4,1.8,10.2
			c0,4.6-0.9,8.7-2.8,12.3c-1.9,3.6-4.4,6.6-7.6,9.1c-3.2,2.4-6.8,4.3-10.8,5.5c-4,1.3-8.2,1.9-12.5,1.9c-5.9,0-11.4-1.1-16.5-3.2
			c-5.1-2.1-9.5-5-13.3-8.7c-3.7-3.7-6.7-7.7-8.8-12l15.4-11.1C340.9,205.9,342.9,208.7,345.2,211.2z"/>
		<path class="st1" d="M454.7,234.7h-23.2l14.8-96l38.9,55.8l39-55.8l14.8,96h-23.2l-5.5-46.6l-25.1,38.1l-24.9-38.1L454.7,234.7z"
			/>
		<path class="st1" d="M577.7,169.6c2.5-5.8,5.9-10.9,10.4-15.1c4.4-4.3,9.7-7.6,15.7-9.9c6-2.3,12.5-3.5,19.5-3.5
			c7.1,0,13.6,1.2,19.5,3.5c6,2.3,11.2,5.6,15.6,9.9c4.4,4.3,7.9,9.3,10.3,15.1c2.4,5.8,3.7,12.3,3.7,19.3s-1.2,13.5-3.6,19.5
			c-2.4,5.9-5.8,11.1-10.2,15.4c-4.4,4.4-9.6,7.7-15.6,10.1c-6,2.4-12.6,3.6-19.7,3.6c-7.2,0-13.8-1.2-19.8-3.6
			c-6-2.4-11.2-5.8-15.6-10.1c-4.4-4.4-7.8-9.5-10.2-15.4c-2.4-5.9-3.6-12.4-3.6-19.5S575.2,175.5,577.7,169.6z M600.6,203.3
			c2.1,4.1,5.1,7.4,9,9.7c3.9,2.4,8.4,3.5,13.6,3.5c5.1,0,9.6-1.2,13.5-3.5c3.9-2.4,6.9-5.6,9-9.7c2.1-4.1,3.2-8.9,3.2-14.3
			c0-5.4-1-10.2-3.1-14.3c-2.1-4.1-5-7.4-8.9-9.7c-3.8-2.4-8.4-3.5-13.7-3.5c-5.2,0-9.8,1.2-13.6,3.5c-3.9,2.4-6.9,5.6-9,9.7
			c-2.1,4.1-3.2,8.9-3.2,14.3C597.4,194.4,598.4,199.1,600.6,203.3z"/>
		<path class="st1" d="M729,179.6h14.8c2.5,0,4.7-0.4,6.5-1.2c1.8-0.8,3.2-1.9,4.1-3.3c1-1.4,1.4-3.2,1.4-5.3c0-3.1-1-5.5-3.1-7.1
			c-2.1-1.6-5.1-2.4-8.9-2.4h-9.1v57.2h11.2c2.9,0,5.4-0.4,7.7-1.1c2.3-0.7,4.1-2,5.4-3.7c1.3-1.7,2-4,2-7c0-1.9-0.4-3.6-1.2-5
			c-0.8-1.4-1.9-2.5-3.3-3.4c-1.4-0.9-3-1.5-4.8-1.9c-1.8-0.4-3.8-0.6-5.9-0.6H729v-12h19.3c4.4,0,8.7,0.5,12.9,1.4
			c4.2,1,8,2.5,11.4,4.6c3.4,2.1,6.1,4.8,8.2,8.1c2,3.3,3.1,7.2,3.1,11.8c0,6.1-1.5,11-4.4,14.8c-2.9,3.7-7,6.5-12.3,8.3
			c-5.3,1.8-11.6,2.7-18.8,2.7h-35.8v-91.4h33.6c6.4,0,11.9,0.8,16.8,2.5s8.7,4.3,11.5,7.7c2.8,3.4,4.2,7.8,4.2,13
			c0,4.8-1.4,8.9-4.2,12.3c-2.8,3.4-6.7,6-11.5,7.8c-4.8,1.8-10.4,2.7-16.8,2.7H729V179.6z"/>
		<path class="st1" d="M846.5,143.3v91.4h-21.2v-91.4H846.5z M840,143.3h46.1v18.2H840V143.3z M840,177.7h43.5v17.8H840V177.7z
			 M840,216.5h46.1v18.2H840V216.5z"/>
		<path class="st1" d="M951.4,143.3v91.4h-21.2v-91.4H951.4z M944.9,143.3H991v18.2h-46.1V143.3z M944.9,177.7h43.5v17.8h-43.5
			V177.7z M944.9,216.5H991v18.2h-46.1V216.5z"/>
	</g>
</g>
<rect x="-107.4" y="78.4" class="st1" width="37.3" height="37.3"/>
<rect x="-107.4" y="126.5" class="st0" width="37.3" height="37.3"/>
</svg>
